<svg width="14" height="13" viewBox="0 0 14 13" fill="none" xmlns="http://www.w3.org/2000/svg">
<path d="M7.49437 1.60425H11.8125C12.924 1.60425 13.8418 2.43319 13.9816 3.50657L13.9953 3.64792L14 3.79175V10.3542C14 11.514 13.0974 12.463 11.9563 12.5371L11.8125 12.5417H2.1875C1.0277 12.5417 0.0787162 11.6392 0.00465298 10.4981L0 10.3542V4.22925H4.43685L4.57087 4.22239C4.8368 4.19511 5.0882 4.08718 5.29114 3.91317L5.38841 3.82073L7.49437 1.60425ZM4.52083 0.291748C4.75749 0.291748 4.98882 0.355712 5.19084 0.47564L5.30833 0.554248L6.46187 1.41962L4.75404 3.21808L4.70085 3.26562C4.64424 3.30846 4.57801 3.33689 4.50796 3.34843L4.43685 3.35425H0V2.47925C0 1.31945 0.902594 0.370464 2.04367 0.296401L2.1875 0.291748H4.52083Z" fill="#0DB7FF"/>
</svg>
