<svg width="17" height="12" viewBox="0 0 17 12" fill="none" xmlns="http://www.w3.org/2000/svg">
<path id="Shape" d="M13.1364 10.5C13.5637 10.5 13.9091 10.8352 13.9091 11.25C13.9091 11.6648 13.5637 12 13.1364 12H0.772727C0.345409 12 0 11.6648 0 11.25C0 10.8352 0.345409 10.5 0.772727 10.5H13.1364ZM16.2273 5.25C16.6546 5.25 17 5.58525 17 6C17 6.41475 16.6546 6.75 16.2273 6.75H0.772727C0.345409 6.75 0 6.41475 0 6C0 5.58525 0.345409 5.25 0.772727 5.25H16.2273ZM14.6818 0C15.1091 0 15.4545 0.33525 15.4545 0.75C15.4545 1.16475 15.1091 1.5 14.6818 1.5H0.772727C0.345409 1.5 0 1.16475 0 0.75C0 0.33525 0.345409 0 0.772727 0H14.6818Z" fill="white"/>
</svg>
