<svg width="14" height="15" viewBox="0 0 14 15" fill="none" xmlns="http://www.w3.org/2000/svg">
<path d="M3.5 2.37508C2.85567 2.37508 2.33333 2.89742 2.33333 3.54175V5.29175C2.33333 5.93608 2.85567 6.45841 3.5 6.45841H5.25C5.89433 6.45841 6.41667 5.93608 6.41667 5.29175V3.54175C6.41667 2.89742 5.89433 2.37508 5.25 2.37508H3.5ZM3.5 7.62508C2.85567 7.62508 2.33333 8.14742 2.33333 8.79175V10.5417C2.33333 11.1861 2.85567 11.7084 3.5 11.7084H5.25C5.89433 11.7084 6.41667 11.1861 6.41667 10.5417V8.79175C6.41667 8.14742 5.89433 7.62508 5.25 7.62508H3.5ZM8.75 2.37508C8.10567 2.37508 7.58333 2.89742 7.58333 3.54175V5.29175C7.58333 5.93608 8.10567 6.45841 8.75 6.45841H10.5C11.1443 6.45841 11.6667 5.93608 11.6667 5.29175V3.54175C11.6667 2.89742 11.1443 2.37508 10.5 2.37508H8.75ZM8.75 7.62508C8.10567 7.62508 7.58333 8.14742 7.58333 8.79175V10.5417C7.58333 11.1861 8.10567 11.7084 8.75 11.7084H10.5C11.1443 11.7084 11.6667 11.1861 11.6667 10.5417V8.79175C11.6667 8.14742 11.1443 7.62508 10.5 7.62508H8.75ZM0 2.95841C0 1.34758 1.30584 0.041748 2.91667 0.041748H11.0833C12.6942 0.041748 14 1.34758 14 2.95841V11.1251C14 12.7359 12.6942 14.0417 11.0833 14.0417H2.91667C1.30584 14.0417 0 12.7359 0 11.1251V2.95841ZM2.91667 1.20841C1.95017 1.20841 1.16667 1.99192 1.16667 2.95841V11.1251C1.16667 12.0916 1.95017 12.8751 2.91667 12.8751H11.0833C12.0498 12.8751 12.8333 12.0916 12.8333 11.1251V2.95841C12.8333 1.99192 12.0498 1.20841 11.0833 1.20841H2.91667Z" fill="white"/>
</svg>
